name Walk8.mot
datacolumns 19
datarows 27
range 3.38700000 3.41300000
endheader

                time	   L_ground_force_vx	   L_ground_force_vy	   L_ground_force_vz	   L_ground_force_px	   L_ground_force_py	   L_ground_force_pz	   R_ground_force_vx	   R_ground_force_vy	   R_ground_force_vz	   R_ground_force_px	   R_ground_force_py	   R_ground_force_pz	   L_ground_torque_x	   L_ground_torque_y	   L_ground_torque_z	   R_ground_torque_x	   R_ground_torque_y	   R_ground_torque_z	
          3.38700000	         20.50070664	        681.59465740	         33.25147482	         -0.25509260	          0.00000000	         -0.07563025	          0.00000000	          0.00000000	          0.00000000	          0.00000000	          0.00000000	          0.00000000	          0.00000000	          1.57501922	          0.00000000	          0.00000000	          0.00000000	          0.00000000	
          3.38800000	         20.82636196	        682.26618847	         33.28101433	         -0.25473703	          0.00000000	         -0.07543635	          0.00000000	          0.00000000	          0.00000000	          0.00000000	          0.00000000	          0.00000000	          0.00000000	          1.55828524	          0.00000000	          0.00000000	          0.00000000	          0.00000000	
          3.38900000	         21.14087333	        683.05515165	         33.31148041	         -0.25436570	          0.00000000	         -0.07522899	          0.00000000	          0.00000000	          0.00000000	          0.00000000	          0.00000000	          0.00000000	          0.00000000	          1.54748077	          0.00000000	          0.00000000	          0.00000000	          0.00000000	
          3.39000000	         21.43533138	        683.94414463	         33.34663864	         -0.25399206	          0.00000000	         -0.07508972	          0.00000000	          0.00000000	          0.00000000	          0.00000000	          0.00000000	          0.00000000	          0.00000000	          1.54634032	          0.00000000	          0.00000000	          0.00000000	          0.00000000	
          3.39100000	         21.70987516	        684.88206521	         33.39697627	         -0.25362256	          0.00000000	         -0.07506762	          0.00000000	          0.00000000	          0.00000000	          0.00000000	          0.00000000	          0.00000000	          0.00000000	          1.55927618	          0.00000000	          0.00000000	          0.00000000	          0.00000000	
          3.39200000	         21.97207020	        685.84359742	         33.46943721	         -0.25325980	          0.00000000	         -0.07515442	          0.00000000	          0.00000000	          0.00000000	          0.00000000	          0.00000000	          0.00000000	          0.00000000	          1.58500579	          0.00000000	          0.00000000	          0.00000000	          0.00000000	
          3.39300000	         22.23134367	        686.83770801	         33.55838039	         -0.25291180	          0.00000000	         -0.07529862	          0.00000000	          0.00000000	          0.00000000	          0.00000000	          0.00000000	          0.00000000	          0.00000000	          1.61327637	          0.00000000	          0.00000000	          0.00000000	          0.00000000	
          3.39400000	         22.49452651	        687.86451395	         33.64989285	         -0.25258959	          0.00000000	         -0.07543876	          0.00000000	          0.00000000	          0.00000000	          0.00000000	          0.00000000	          0.00000000	          0.00000000	          1.63256471	          0.00000000	          0.00000000	          0.00000000	          0.00000000	
          3.39500000	         22.76667327	        688.89594450	         33.73289563	         -0.25229383	          0.00000000	         -0.07553345	          0.00000000	          0.00000000	          0.00000000	          0.00000000	          0.00000000	          0.00000000	          0.00000000	          1.63974186	          0.00000000	          0.00000000	          0.00000000	          0.00000000	
          3.39600000	         23.05089572	        689.90105061	         33.80551003	         -0.25200961	          0.00000000	         -0.07557203	          0.00000000	          0.00000000	          0.00000000	          0.00000000	          0.00000000	          0.00000000	          0.00000000	          1.63990490	          0.00000000	          0.00000000	          0.00000000	          0.00000000	
          3.39700000	         23.34678677	        690.86813332	         33.87404006	         -0.25171217	          0.00000000	         -0.07555707	          0.00000000	          0.00000000	          0.00000000	          0.00000000	          0.00000000	          0.00000000	          0.00000000	          1.64014410	          0.00000000	          0.00000000	          0.00000000	          0.00000000	
          3.39800000	         23.65337198	        691.80367192	         33.94454374	         -0.25137938	          0.00000000	         -0.07549407	          0.00000000	          0.00000000	          0.00000000	          0.00000000	          0.00000000	          0.00000000	          0.00000000	          1.64465536	          0.00000000	          0.00000000	          0.00000000	          0.00000000	
          3.39900000	         23.96733302	        692.71980080	         34.01649200	         -0.25100403	          0.00000000	         -0.07540752	          0.00000000	          0.00000000	          0.00000000	          0.00000000	          0.00000000	          0.00000000	          0.00000000	          1.65319928	          0.00000000	          0.00000000	          0.00000000	          0.00000000	
          3.40000000	         24.27819169	        693.62685420	         34.08742466	         -0.25059273	          0.00000000	         -0.07533922	          0.00000000	          0.00000000	          0.00000000	          0.00000000	          0.00000000	          0.00000000	          0.00000000	          1.66323456	          0.00000000	          0.00000000	          0.00000000	          0.00000000	
          3.40100000	         24.57461171	        694.53995052	         34.15572781	         -0.25015907	          0.00000000	         -0.07531836	          0.00000000	          0.00000000	          0.00000000	          0.00000000	          0.00000000	          0.00000000	          0.00000000	          1.67382428	          0.00000000	          0.00000000	          0.00000000	          0.00000000	
          3.40200000	         24.85313682	        695.48239645	         34.21409672	         -0.24972157	          0.00000000	         -0.07534959	          0.00000000	          0.00000000	          0.00000000	          0.00000000	          0.00000000	          0.00000000	          0.00000000	          1.68572914	          0.00000000	          0.00000000	          0.00000000	          0.00000000	
          3.40300000	         25.11699340	        696.47335794	         34.25114080	         -0.24930237	          0.00000000	         -0.07542604	          0.00000000	          0.00000000	          0.00000000	          0.00000000	          0.00000000	          0.00000000	          0.00000000	          1.69700169	          0.00000000	          0.00000000	          0.00000000	          0.00000000	
          3.40400000	         25.36975261	        697.51420574	         34.26227725	         -0.24892251	          0.00000000	         -0.07553580	          0.00000000	          0.00000000	          0.00000000	          0.00000000	          0.00000000	          0.00000000	          0.00000000	          1.70141470	          0.00000000	          0.00000000	          0.00000000	          0.00000000	
          3.40500000	         25.61336259	        698.57833214	         34.25077811	         -0.24858918	          0.00000000	         -0.07565788	          0.00000000	          0.00000000	          0.00000000	          0.00000000	          0.00000000	          0.00000000	          0.00000000	          1.69358194	          0.00000000	          0.00000000	          0.00000000	          0.00000000	
          3.40600000	         25.85100104	        699.61206489	         34.22192949	         -0.24828592	          0.00000000	         -0.07576323	          0.00000000	          0.00000000	          0.00000000	          0.00000000	          0.00000000	          0.00000000	          0.00000000	          1.67623284	          0.00000000	          0.00000000	          0.00000000	          0.00000000	
          3.40700000	         26.08689938	        700.57395035	         34.18369631	         -0.24798286	          0.00000000	         -0.07582772	          0.00000000	          0.00000000	          0.00000000	          0.00000000	          0.00000000	          0.00000000	          0.00000000	          1.66139110	          0.00000000	          0.00000000	          0.00000000	          0.00000000	
          3.40800000	         26.32350039	        701.47570841	         34.14886517	         -0.24765631	          0.00000000	         -0.07584739	          0.00000000	          0.00000000	          0.00000000	          0.00000000	          0.00000000	          0.00000000	          0.00000000	          1.66218599	          0.00000000	          0.00000000	          0.00000000	          0.00000000	
          3.40900000	         26.55908060	        702.36232464	         34.13124093	         -0.24729829	          0.00000000	         -0.07583731	          0.00000000	          0.00000000	          0.00000000	          0.00000000	          0.00000000	          0.00000000	          0.00000000	          1.68316346	          0.00000000	          0.00000000	          0.00000000	          0.00000000	
          3.41000000	         26.78833623	        703.26756643	         34.13891077	         -0.24691818	          0.00000000	         -0.07581656	          0.00000000	          0.00000000	          0.00000000	          0.00000000	          0.00000000	          0.00000000	          0.00000000	          1.71821418	          0.00000000	          0.00000000	          0.00000000	          0.00000000	
          3.41100000	         27.00799840	        704.18884268	         34.17036017	         -0.24653850	          0.00000000	         -0.07579700	          0.00000000	          0.00000000	          0.00000000	          0.00000000	          0.00000000	          0.00000000	          0.00000000	          1.75480368	          0.00000000	          0.00000000	          0.00000000	          0.00000000	
          3.41200000	         27.22021071	        705.08202738	         34.21773887	         -0.24617772	          0.00000000	         -0.07577982	          0.00000000	          0.00000000	          0.00000000	          0.00000000	          0.00000000	          0.00000000	          0.00000000	          1.77924959	          0.00000000	          0.00000000	          0.00000000	          0.00000000	
          3.41300000	         27.43394814	        705.89546347	         34.27366797	         -0.24583581	          0.00000000	         -0.07575588	          0.00000000	          0.00000000	          0.00000000	          0.00000000	          0.00000000	          0.00000000	          0.00000000	          1.78355709	          0.00000000	          0.00000000	          0.00000000	          0.00000000	
